<svg xmlns="http://www.w3.org/2000/svg" xmlns:xlink="http://www.w3.org/1999/xlink" width="725" zoomAndPan="magnify" viewBox="0 0 543.75 164.249993" height="219" preserveAspectRatio="xMidYMid meet" version="1.0"><defs><g/><clipPath id="d8667f8ad9"><path d="M 47 15 L 107 15 L 107 64 L 47 64 Z M 47 15 " clip-rule="nonzero"/></clipPath><clipPath id="f5af122996"><path d="M 47.660156 49.914062 L 96.859375 15.203125 L 106.480469 28.835938 L 57.277344 63.546875 Z M 47.660156 49.914062 " clip-rule="nonzero"/></clipPath><clipPath id="2e6b7f7eb4"><path d="M 0.605469 0 L 59.617188 0 L 59.617188 48.722656 L 0.605469 48.722656 Z M 0.605469 0 " clip-rule="nonzero"/></clipPath><clipPath id="342f33c733"><path d="M 0.660156 34.914062 L 49.859375 0.203125 L 59.480469 13.835938 L 10.277344 48.546875 Z M 0.660156 34.914062 " clip-rule="nonzero"/></clipPath><clipPath id="8818ebbc11"><rect x="0" width="60" y="0" height="49"/></clipPath><clipPath id="21b63fc952"><path d="M 0.300781 3 L 107 3 L 107 113 L 0.300781 113 Z M 0.300781 3 " clip-rule="nonzero"/></clipPath><clipPath id="95ba45c0f8"><path d="M 106.472656 21.007812 L 88.375 112.722656 L 0.445312 95.375 L 18.539062 3.660156 Z M 106.472656 21.007812 " clip-rule="nonzero"/></clipPath><clipPath id="78df3f4075"><path d="M 38 59 L 65 59 L 65 101 L 38 101 Z M 38 59 " clip-rule="nonzero"/></clipPath><clipPath id="a3338389ea"><path d="M 106.472656 18.007812 L 88.375 109.722656 L 0.445312 92.375 L 18.539062 0.660156 Z M 106.472656 18.007812 " clip-rule="nonzero"/></clipPath><clipPath id="76e964bcbe"><path d="M 88.453125 109.324219 L 106.550781 17.609375 L 18.617188 0.261719 L 0.523438 91.976562 Z M 88.453125 109.324219 " clip-rule="nonzero"/></clipPath><clipPath id="ec8c0ad861"><path d="M 63 15 L 95 15 L 95 48 L 63 48 Z M 63 15 " clip-rule="nonzero"/></clipPath><clipPath id="50aaf6d2a7"><path d="M 106.472656 18.007812 L 88.375 109.722656 L 0.445312 92.375 L 18.539062 0.660156 Z M 106.472656 18.007812 " clip-rule="nonzero"/></clipPath><clipPath id="b643f216b3"><path d="M 88.453125 109.324219 L 106.550781 17.609375 L 18.617188 0.261719 L 0.523438 91.976562 Z M 88.453125 109.324219 " clip-rule="nonzero"/></clipPath><clipPath id="8aef19eeea"><path d="M 6 28 L 105 28 L 105 76 L 6 76 Z M 6 28 " clip-rule="nonzero"/></clipPath><clipPath id="862f7442ab"><path d="M 106.472656 18.007812 L 88.375 109.722656 L 0.445312 92.375 L 18.539062 0.660156 Z M 106.472656 18.007812 " clip-rule="nonzero"/></clipPath><clipPath id="27f5020434"><path d="M 88.453125 109.324219 L 106.550781 17.609375 L 18.617188 0.261719 L 0.523438 91.976562 Z M 88.453125 109.324219 " clip-rule="nonzero"/></clipPath><clipPath id="b618c13d05"><rect x="0" width="107" y="0" height="110"/></clipPath><clipPath id="0fdb87ff4b"><path d="M 63 5 L 89 5 L 89 34 L 63 34 Z M 63 5 " clip-rule="nonzero"/></clipPath><clipPath id="0b8c0eca55"><path d="M 63.285156 11.546875 L 81.640625 5.476562 L 88.996094 27.734375 L 70.640625 33.800781 Z M 63.285156 11.546875 " clip-rule="nonzero"/></clipPath><clipPath id="34d3813027"><path d="M 0.136719 0.429688 L 26 0.429688 L 26 28.859375 L 0.136719 28.859375 Z M 0.136719 0.429688 " clip-rule="nonzero"/></clipPath><clipPath id="2a311a3f59"><path d="M 0.285156 6.546875 L 18.640625 0.476562 L 25.996094 22.734375 L 7.640625 28.800781 Z M 0.285156 6.546875 " clip-rule="nonzero"/></clipPath><clipPath id="d765949c03"><rect x="0" width="26" y="0" height="29"/></clipPath><clipPath id="7dcb4454d9"><path d="M 343 0.890625 L 483.617188 0.890625 L 483.617188 115.089844 L 343 115.089844 Z M 343 0.890625 " clip-rule="nonzero"/></clipPath><clipPath id="e370186375"><rect x="0" width="141" y="0" height="116"/></clipPath><clipPath id="40ca251b72"><rect x="0" width="484" y="0" height="116"/></clipPath></defs><g transform="matrix(1, 0, 0, 1, 29, 23)"><g clip-path="url(#40ca251b72)"><g fill="#e8e8e8" fill-opacity="1"><g transform="translate(67.558186, 90.814104)"><g><path d="M 37 -50.703125 C 41.539062 -50.703125 45.664062 -49.660156 49.375 -47.578125 C 53.082031 -45.492188 56.023438 -42.503906 58.203125 -38.609375 C 60.390625 -34.710938 61.484375 -30.1875 61.484375 -25.03125 C 61.484375 -19.875 60.390625 -15.332031 58.203125 -11.40625 C 56.023438 -7.476562 53.082031 -4.457031 49.375 -2.34375 C 45.664062 -0.226562 41.539062 0.828125 37 0.828125 C 30.4375 0.828125 25.523438 -1.101562 22.265625 -4.96875 L 22.265625 0 L 5.609375 0 L 5.609375 -68.28125 L 23.09375 -68.28125 L 23.09375 -45.5625 C 26.46875 -48.988281 31.101562 -50.703125 37 -50.703125 Z M 33.3125 -13.0625 C 36.382812 -13.0625 38.898438 -14.117188 40.859375 -16.234375 C 42.828125 -18.359375 43.8125 -21.289062 43.8125 -25.03125 C 43.8125 -28.707031 42.828125 -31.585938 40.859375 -33.671875 C 38.898438 -35.765625 36.382812 -36.8125 33.3125 -36.8125 C 30.25 -36.8125 27.734375 -35.765625 25.765625 -33.671875 C 23.804688 -31.585938 22.828125 -28.707031 22.828125 -25.03125 C 22.828125 -21.289062 23.804688 -18.359375 25.765625 -16.234375 C 27.734375 -14.117188 30.25 -13.0625 33.3125 -13.0625 Z M 33.3125 -13.0625 "/></g></g></g><g fill="#e8e8e8" fill-opacity="1"><g transform="translate(121.75741, 90.814104)"><g><path d="M 26.875 -50.703125 C 35.15625 -50.703125 41.472656 -48.816406 45.828125 -45.046875 C 50.179688 -41.273438 52.359375 -35.492188 52.359375 -27.703125 L 52.359375 0 L 36.078125 0 L 36.078125 -6.4375 C 33.554688 -1.59375 28.644531 0.828125 21.34375 0.828125 C 17.476562 0.828125 14.132812 0.15625 11.3125 -1.1875 C 8.5 -2.539062 6.367188 -4.367188 4.921875 -6.671875 C 3.484375 -8.972656 2.765625 -11.597656 2.765625 -14.546875 C 2.765625 -19.265625 4.570312 -22.925781 8.1875 -25.53125 C 11.8125 -28.144531 17.394531 -29.453125 24.9375 -29.453125 L 34.875 -29.453125 C 34.570312 -34.722656 31.046875 -37.359375 24.296875 -37.359375 C 21.898438 -37.359375 19.472656 -36.972656 17.015625 -36.203125 C 14.566406 -35.441406 12.484375 -34.390625 10.765625 -33.046875 L 4.875 -44.90625 C 7.632812 -46.75 10.992188 -48.175781 14.953125 -49.1875 C 18.910156 -50.195312 22.882812 -50.703125 26.875 -50.703125 Z M 26.234375 -10.21875 C 28.253906 -10.21875 30.03125 -10.707031 31.5625 -11.6875 C 33.101562 -12.664062 34.207031 -14.109375 34.875 -16.015625 L 34.875 -20.34375 L 27.328125 -20.34375 C 22.234375 -20.34375 19.6875 -18.65625 19.6875 -15.28125 C 19.6875 -13.738281 20.269531 -12.507812 21.4375 -11.59375 C 22.601562 -10.675781 24.203125 -10.21875 26.234375 -10.21875 Z M 26.234375 -10.21875 "/></g></g></g><g fill="#e8e8e8" fill-opacity="1"><g transform="translate(169.791192, 90.814104)"><g><path d="M 22.265625 -43.90625 C 24.046875 -46.164062 26.363281 -47.863281 29.21875 -49 C 32.070312 -50.132812 35.335938 -50.703125 39.015625 -50.703125 L 39.015625 -34.96875 C 37.421875 -35.15625 36.101562 -35.25 35.0625 -35.25 C 31.320312 -35.25 28.390625 -34.234375 26.265625 -32.203125 C 24.148438 -30.179688 23.09375 -27.085938 23.09375 -22.921875 L 23.09375 0 L 5.609375 0 L 5.609375 -49.875 L 22.265625 -49.875 Z M 22.265625 -43.90625 "/></g></g></g><g fill="#e8e8e8" fill-opacity="1"><g transform="translate(200.801006, 90.814104)"><g><path d="M 37 -50.703125 C 41.539062 -50.703125 45.664062 -49.660156 49.375 -47.578125 C 53.082031 -45.492188 56.023438 -42.503906 58.203125 -38.609375 C 60.390625 -34.710938 61.484375 -30.1875 61.484375 -25.03125 C 61.484375 -19.875 60.390625 -15.332031 58.203125 -11.40625 C 56.023438 -7.476562 53.082031 -4.457031 49.375 -2.34375 C 45.664062 -0.226562 41.539062 0.828125 37 0.828125 C 30.4375 0.828125 25.523438 -1.101562 22.265625 -4.96875 L 22.265625 0 L 5.609375 0 L 5.609375 -68.28125 L 23.09375 -68.28125 L 23.09375 -45.5625 C 26.46875 -48.988281 31.101562 -50.703125 37 -50.703125 Z M 33.3125 -13.0625 C 36.382812 -13.0625 38.898438 -14.117188 40.859375 -16.234375 C 42.828125 -18.359375 43.8125 -21.289062 43.8125 -25.03125 C 43.8125 -28.707031 42.828125 -31.585938 40.859375 -33.671875 C 38.898438 -35.765625 36.382812 -36.8125 33.3125 -36.8125 C 30.25 -36.8125 27.734375 -35.765625 25.765625 -33.671875 C 23.804688 -31.585938 22.828125 -28.707031 22.828125 -25.03125 C 22.828125 -21.289062 23.804688 -18.359375 25.765625 -16.234375 C 27.734375 -14.117188 30.25 -13.0625 33.3125 -13.0625 Z M 33.3125 -13.0625 "/></g></g></g><g fill="#e8e8e8" fill-opacity="1"><g transform="translate(255.000229, 90.814104)"><g><path d="M 56.59375 -24.84375 C 56.59375 -24.726562 56.503906 -23.285156 56.328125 -20.515625 L 20.0625 -20.515625 C 20.800781 -17.941406 22.226562 -15.960938 24.34375 -14.578125 C 26.457031 -13.203125 29.109375 -12.515625 32.296875 -12.515625 C 34.691406 -12.515625 36.765625 -12.851562 38.515625 -13.53125 C 40.265625 -14.207031 42.03125 -15.3125 43.8125 -16.84375 L 53.015625 -7.265625 C 48.160156 -1.867188 41.070312 0.828125 31.75 0.828125 C 25.914062 0.828125 20.789062 -0.273438 16.375 -2.484375 C 11.957031 -4.691406 8.535156 -7.757812 6.109375 -11.6875 C 3.691406 -15.613281 2.484375 -20.0625 2.484375 -25.03125 C 2.484375 -29.9375 3.664062 -34.335938 6.03125 -38.234375 C 8.394531 -42.128906 11.660156 -45.179688 15.828125 -47.390625 C 20.003906 -49.597656 24.695312 -50.703125 29.90625 -50.703125 C 34.875 -50.703125 39.382812 -49.675781 43.4375 -47.625 C 47.488281 -45.570312 50.691406 -42.597656 53.046875 -38.703125 C 55.410156 -34.804688 56.59375 -30.1875 56.59375 -24.84375 Z M 30 -38.28125 C 27.300781 -38.28125 25.046875 -37.515625 23.234375 -35.984375 C 21.421875 -34.453125 20.269531 -32.363281 19.78125 -29.71875 L 40.21875 -29.71875 C 39.726562 -32.363281 38.578125 -34.453125 36.765625 -35.984375 C 34.953125 -37.515625 32.695312 -38.28125 30 -38.28125 Z M 30 -38.28125 "/></g></g></g><g fill="#e8e8e8" fill-opacity="1"><g transform="translate(304.32231, 90.814104)"><g><path d="M 22.265625 -43.90625 C 24.046875 -46.164062 26.363281 -47.863281 29.21875 -49 C 32.070312 -50.132812 35.335938 -50.703125 39.015625 -50.703125 L 39.015625 -34.96875 C 37.421875 -35.15625 36.101562 -35.25 35.0625 -35.25 C 31.320312 -35.25 28.390625 -34.234375 26.265625 -32.203125 C 24.148438 -30.179688 23.09375 -27.085938 23.09375 -22.921875 L 23.09375 0 L 5.609375 0 L 5.609375 -49.875 L 22.265625 -49.875 Z M 22.265625 -43.90625 "/></g></g></g><g clip-path="url(#d8667f8ad9)"><g clip-path="url(#f5af122996)"><g transform="matrix(1, 0, 0, 1, 47, 15)"><g clip-path="url(#8818ebbc11)"><g clip-path="url(#2e6b7f7eb4)"><g clip-path="url(#342f33c733)"><path fill="#1a1b1f" d="M 0.660156 34.914062 L 49.871094 0.195312 L 59.488281 13.828125 L 10.277344 48.546875 Z M 0.660156 34.914062 " fill-opacity="1" fill-rule="nonzero"/></g></g></g></g></g></g><g clip-path="url(#21b63fc952)"><g clip-path="url(#95ba45c0f8)"><g transform="matrix(1, 0, 0, 1, -0.000000000000007105, 3)"><g clip-path="url(#b618c13d05)"><g clip-path="url(#78df3f4075)"><g clip-path="url(#a3338389ea)"><g clip-path="url(#76e964bcbe)"><path fill="#815ff1" d="M 44.03125 81.136719 C 48.324219 78.285156 53.871094 76.945312 56.546875 72.191406 C 58.53125 68.695312 59.148438 63.980469 59.246094 60.109375 C 59.890625 60.207031 60.46875 60.320312 60.925781 60.410156 C 62.296875 60.679688 63.738281 60.425781 64.96875 59.785156 C 60.605469 65.089844 61.367188 69.222656 62.035156 70.96875 C 62.21875 71.476562 62.074219 72.050781 61.632812 72.375 C 57.90625 75.085938 56.746094 80.957031 57.785156 85.460938 C 59.441406 92.617188 54.710938 102.65625 46.070312 100.601562 C 38.976562 98.917969 37.097656 89.851562 40.742188 84.34375 C 40.515625 83.574219 40.183594 82.050781 40.875 81.113281 C 41.777344 79.742188 44.03125 81.136719 44.03125 81.136719 Z M 43.324219 89.214844 C 42.4375 93.058594 44.238281 96.761719 47.355469 97.472656 C 50.46875 98.183594 53.695312 95.625 54.578125 91.785156 C 55.460938 87.945312 53.664062 84.238281 50.546875 83.527344 C 47.429688 82.820312 44.207031 85.375 43.324219 89.214844 Z M 43.324219 89.214844 " fill-opacity="1" fill-rule="nonzero"/></g></g></g><g clip-path="url(#ec8c0ad861)"><g clip-path="url(#50aaf6d2a7)"><g clip-path="url(#b643f216b3)"><path fill="#815ff1" d="M 63.972656 47.542969 L 93.882812 15.949219 C 94.207031 15.601562 94.722656 16.019531 94.488281 16.414062 C 91.347656 21.265625 85.304688 30.601562 79.425781 39.398438 C 73.761719 42.296875 68.265625 45.164062 63.972656 47.542969 Z M 63.972656 47.542969 " fill-opacity="1" fill-rule="nonzero"/></g></g></g><g clip-path="url(#8aef19eeea)"><g clip-path="url(#862f7442ab)"><g clip-path="url(#27f5020434)"><path fill="#815ff1" d="M 14.339844 66.109375 C 14.109375 57.96875 24.140625 54.734375 30.8125 57.125 C 35.152344 58.675781 41.132812 58.179688 44.230469 54.808594 C 44.597656 54.40625 45.210938 54.335938 45.671875 54.554688 C 47.367188 55.425781 51.628906 56.742188 57.667969 52.558594 C 64.222656 48.035156 93.238281 33.652344 103.535156 28.570312 C 103.953125 28.367188 104.3125 28.945312 103.945312 29.21875 L 65.101562 58.324219 C 63.953125 59.171875 62.523438 59.523438 61.125 59.246094 C 57.375 58.539062 49.421875 57.507812 43.808594 59.847656 C 38.15625 62.207031 36.378906 68.65625 32.183594 72.601562 C 27.292969 77.203125 18.148438 75.808594 15.230469 69.921875 C 10.960938 69.933594 5.820312 64.742188 6.339844 63.234375 C 6.804688 62 10.636719 66.609375 14.339844 66.109375 Z M 62.769531 55.082031 C 63.335938 55.574219 64.167969 55.515625 64.628906 54.945312 C 65.121094 54.375 65.0625 53.542969 64.488281 53.082031 C 63.917969 52.621094 63.089844 52.648438 62.628906 53.222656 C 62.175781 53.765625 62.226562 54.628906 62.769531 55.082031 Z M 17.628906 66.09375 C 17.984375 69.261719 21.433594 71.492188 25.375 71.070312 C 29.285156 70.636719 32.203125 67.703125 31.847656 64.535156 C 31.492188 61.367188 28.042969 59.140625 24.101562 59.5625 C 20.191406 59.992188 17.273438 62.925781 17.628906 66.09375 Z M 17.628906 66.09375 " fill-opacity="1" fill-rule="nonzero"/></g></g></g></g></g></g></g><g clip-path="url(#0fdb87ff4b)"><g clip-path="url(#0b8c0eca55)"><g transform="matrix(1, 0, 0, 1, 63, 5)"><g clip-path="url(#d765949c03)"><g clip-path="url(#34d3813027)"><g clip-path="url(#2a311a3f59)"><path fill="#ffffff" d="M 0.285156 6.546875 L 18.640625 0.476562 L 25.984375 22.707031 L 7.628906 28.773438 Z M 0.285156 6.546875 " fill-opacity="1" fill-rule="nonzero"/></g></g></g></g></g></g><g clip-path="url(#7dcb4454d9)"><g transform="matrix(1, 0, 0, 1, 343, -0.000000000000003553)"><g clip-path="url(#e370186375)"><g fill="#815ff1" fill-opacity="1"><g transform="translate(1.406773, 90.858287)"><g><path d="M 49.609375 -33.59375 L 65.703125 -33.59375 L 65.703125 -6.90625 C 62.023438 -4.257812 57.789062 -2.234375 53 -0.828125 C 48.21875 0.578125 43.4375 1.28125 38.65625 1.28125 C 31.90625 1.28125 25.828125 -0.140625 20.421875 -2.984375 C 15.023438 -5.835938 10.789062 -9.8125 7.71875 -14.90625 C 4.65625 -20 3.125 -25.765625 3.125 -32.203125 C 3.125 -38.648438 4.65625 -44.421875 7.71875 -49.515625 C 10.789062 -54.609375 15.054688 -58.578125 20.515625 -61.421875 C 25.984375 -64.273438 32.148438 -65.703125 39.015625 -65.703125 C 45.035156 -65.703125 50.4375 -64.691406 55.21875 -62.671875 C 60 -60.648438 63.988281 -57.738281 67.1875 -53.9375 L 55.59375 -43.4375 C 51.226562 -48.21875 46.007812 -50.609375 39.9375 -50.609375 C 34.414062 -50.609375 29.96875 -48.9375 26.59375 -45.59375 C 23.21875 -42.25 21.53125 -37.785156 21.53125 -32.203125 C 21.53125 -28.648438 22.296875 -25.476562 23.828125 -22.6875 C 25.367188 -19.894531 27.519531 -17.710938 30.28125 -16.140625 C 33.039062 -14.578125 36.195312 -13.796875 39.75 -13.796875 C 43.25 -13.796875 46.535156 -14.503906 49.609375 -15.921875 Z M 49.609375 -33.59375 "/></g></g></g><g fill="#815ff1" fill-opacity="1"><g transform="translate(62.518133, 90.858287)"><g><path d="M 38.921875 1.28125 C 32.117188 1.28125 26 -0.15625 20.5625 -3.03125 C 15.132812 -5.914062 10.867188 -9.90625 7.765625 -15 C 4.671875 -20.09375 3.125 -25.828125 3.125 -32.203125 C 3.125 -38.585938 4.671875 -44.328125 7.765625 -49.421875 C 10.867188 -54.515625 15.132812 -58.5 20.5625 -61.375 C 26 -64.257812 32.117188 -65.703125 38.921875 -65.703125 C 45.734375 -65.703125 51.851562 -64.257812 57.28125 -61.375 C 62.71875 -58.5 66.984375 -54.515625 70.078125 -49.421875 C 73.179688 -44.328125 74.734375 -38.585938 74.734375 -32.203125 C 74.734375 -25.828125 73.179688 -20.09375 70.078125 -15 C 66.984375 -9.90625 62.71875 -5.914062 57.28125 -3.03125 C 51.851562 -0.15625 45.734375 1.28125 38.921875 1.28125 Z M 38.921875 -13.796875 C 42.179688 -13.796875 45.128906 -14.5625 47.765625 -16.09375 C 50.398438 -17.632812 52.484375 -19.800781 54.015625 -22.59375 C 55.554688 -25.382812 56.328125 -28.585938 56.328125 -32.203125 C 56.328125 -35.828125 55.554688 -39.035156 54.015625 -41.828125 C 52.484375 -44.617188 50.398438 -46.78125 47.765625 -48.3125 C 45.128906 -49.84375 42.179688 -50.609375 38.921875 -50.609375 C 35.671875 -50.609375 32.726562 -49.84375 30.09375 -48.3125 C 27.457031 -46.78125 25.367188 -44.617188 23.828125 -41.828125 C 22.296875 -39.035156 21.53125 -35.828125 21.53125 -32.203125 C 21.53125 -28.585938 22.296875 -25.382812 23.828125 -22.59375 C 25.367188 -19.800781 27.457031 -17.632812 30.09375 -16.09375 C 32.726562 -14.5625 35.671875 -13.796875 38.921875 -13.796875 Z M 38.921875 -13.796875 "/></g></g></g></g></g></g></g></g></svg>