<svg xmlns="http://www.w3.org/2000/svg" xmlns:xlink="http://www.w3.org/1999/xlink" width="716" zoomAndPan="magnify" viewBox="0 0 537 371.249998" height="495" preserveAspectRatio="xMidYMid meet" version="1.0"><defs><g/><clipPath id="36373329a1"><path d="M 0.542969 0 L 470 0 L 470 316 L 0.542969 316 Z M 0.542969 0 " clip-rule="nonzero"/></clipPath><clipPath id="ae6ed35e3a"><path d="M 0.542969 0.238281 L 242 0.238281 L 242 248 L 0.542969 248 Z M 0.542969 0.238281 " clip-rule="nonzero"/></clipPath><clipPath id="c02fa47dfc"><path d="M 242.273438 39.59375 L 201.089844 248.339844 L 0.691406 208.800781 L 41.878906 0.0546875 Z M 242.273438 39.59375 " clip-rule="nonzero"/></clipPath><clipPath id="b41fc5562a"><path d="M 88 134 L 148 134 L 148 229 L 88 229 Z M 88 134 " clip-rule="nonzero"/></clipPath><clipPath id="920143d219"><path d="M 242.273438 39.59375 L 201.089844 248.339844 L 0.691406 208.800781 L 41.878906 0.0546875 Z M 242.273438 39.59375 " clip-rule="nonzero"/></clipPath><clipPath id="1b56f0995b"><path d="M 201.195312 247.792969 L 242.382812 39.046875 L 41.988281 -0.492188 L 0.800781 208.253906 Z M 201.195312 247.792969 " clip-rule="nonzero"/></clipPath><clipPath id="5b6dcc4014"><path d="M 145 34 L 216 34 L 216 107 L 145 107 Z M 145 34 " clip-rule="nonzero"/></clipPath><clipPath id="a0780b8d37"><path d="M 242.273438 39.59375 L 201.089844 248.339844 L 0.691406 208.800781 L 41.878906 0.0546875 Z M 242.273438 39.59375 " clip-rule="nonzero"/></clipPath><clipPath id="4b86892511"><path d="M 201.195312 247.792969 L 242.382812 39.046875 L 41.988281 -0.492188 L 0.800781 208.253906 Z M 201.195312 247.792969 " clip-rule="nonzero"/></clipPath><clipPath id="65cf525785"><path d="M 13 63 L 237 63 L 237 171 L 13 171 Z M 13 63 " clip-rule="nonzero"/></clipPath><clipPath id="f0085aeeb7"><path d="M 242.273438 39.59375 L 201.089844 248.339844 L 0.691406 208.800781 L 41.878906 0.0546875 Z M 242.273438 39.59375 " clip-rule="nonzero"/></clipPath><clipPath id="f11b602119"><path d="M 201.195312 247.792969 L 242.382812 39.046875 L 41.988281 -0.492188 L 0.800781 208.253906 Z M 201.195312 247.792969 " clip-rule="nonzero"/></clipPath><clipPath id="2d1f5d0a21"><rect x="0" width="242" y="0" height="248"/></clipPath><clipPath id="cc7e9849f0"><path d="M 149 55 L 469.515625 55 L 469.515625 315.921875 L 149 315.921875 Z M 149 55 " clip-rule="nonzero"/></clipPath><clipPath id="327f301bba"><rect x="0" width="321" y="0" height="261"/></clipPath><clipPath id="baa0c8ff9e"><rect x="0" width="470" y="0" height="316"/></clipPath></defs><g clip-path="url(#36373329a1)"><g transform="matrix(1, 0, 0, 1, 0, -0.000000000000024675)"><g clip-path="url(#baa0c8ff9e)"><g clip-path="url(#ae6ed35e3a)"><g clip-path="url(#c02fa47dfc)"><g transform="matrix(1, 0, 0, 1, 0, -0.000000000000024675)"><g clip-path="url(#2d1f5d0a21)"><g clip-path="url(#b41fc5562a)"><g clip-path="url(#920143d219)"><g clip-path="url(#1b56f0995b)"><path fill="#815ff1" d="M 99.910156 183.523438 C 109.699219 177.019531 122.339844 173.964844 128.445312 163.132812 C 132.972656 155.15625 134.371094 144.40625 134.597656 135.582031 C 136.070312 135.800781 137.386719 136.0625 138.429688 136.265625 C 141.550781 136.882812 144.835938 136.304688 147.648438 134.84375 C 137.695312 146.933594 139.4375 156.363281 140.960938 160.339844 C 141.378906 161.503906 141.050781 162.808594 140.039062 163.542969 C 131.539062 169.726562 128.898438 183.117188 131.269531 193.386719 C 135.042969 209.703125 124.253906 232.585938 104.5625 227.910156 C 88.378906 224.066406 84.097656 203.398438 92.414062 190.839844 C 91.894531 189.078125 91.136719 185.613281 92.710938 183.472656 C 94.769531 180.347656 99.910156 183.523438 99.910156 183.523438 Z M 98.292969 201.945312 C 96.277344 210.703125 100.378906 219.152344 107.484375 220.773438 C 114.589844 222.390625 121.9375 216.558594 123.953125 207.804688 C 125.96875 199.046875 121.871094 190.597656 114.765625 188.976562 C 107.660156 187.359375 100.3125 193.191406 98.292969 201.945312 Z M 98.292969 201.945312 " fill-opacity="1" fill-rule="nonzero"/></g></g></g><g clip-path="url(#5b6dcc4014)"><g clip-path="url(#a0780b8d37)"><g clip-path="url(#4b86892511)"><path fill="#815ff1" d="M 145.371094 106.929688 L 213.574219 34.894531 C 214.308594 34.101562 215.488281 35.054688 214.953125 35.957031 C 207.796875 47.015625 194.007812 68.300781 180.609375 88.363281 C 167.699219 94.972656 155.164062 101.507812 145.371094 106.929688 Z M 145.371094 106.929688 " fill-opacity="1" fill-rule="nonzero"/></g></g></g><g clip-path="url(#65cf525785)"><g clip-path="url(#f0085aeeb7)"><g clip-path="url(#f11b602119)"><path fill="#815ff1" d="M 32.207031 149.261719 C 31.6875 130.703125 54.554688 123.324219 69.769531 128.777344 C 79.667969 132.3125 93.296875 131.183594 100.367188 123.496094 C 101.195312 122.578125 102.597656 122.421875 103.652344 122.917969 C 107.511719 124.90625 117.230469 127.902344 131.003906 118.367188 C 145.941406 108.050781 212.097656 75.257812 235.578125 63.671875 C 236.535156 63.210938 237.355469 64.527344 236.511719 65.152344 L 147.945312 131.511719 C 145.328125 133.449219 142.070312 134.246094 138.878906 133.617188 C 130.332031 132.003906 112.199219 129.648438 99.398438 134.980469 C 86.511719 140.367188 82.457031 155.066406 72.898438 164.066406 C 61.746094 174.550781 40.890625 171.375 34.242188 157.953125 C 24.503906 157.976562 12.78125 146.148438 13.964844 142.707031 C 15.027344 139.886719 23.765625 150.40625 32.207031 149.261719 Z M 142.628906 124.121094 C 143.921875 125.242188 145.820312 125.109375 146.871094 123.804688 C 147.992188 122.511719 147.863281 120.613281 146.554688 119.5625 C 145.25 118.511719 143.363281 118.570312 142.3125 119.878906 C 141.273438 121.113281 141.390625 123.082031 142.628906 124.121094 Z M 39.710938 149.226562 C 40.519531 156.453125 48.382812 161.535156 57.367188 160.570312 C 66.285156 159.589844 72.9375 152.902344 72.128906 145.675781 C 71.320312 138.453125 63.457031 133.367188 54.472656 134.335938 C 45.554688 135.316406 38.902344 142.003906 39.710938 149.226562 Z M 39.710938 149.226562 " fill-opacity="1" fill-rule="nonzero"/></g></g></g></g></g></g></g><g clip-path="url(#cc7e9849f0)"><g transform="matrix(1, 0, 0, 1, 149, 55)"><g clip-path="url(#327f301bba)"><g fill="#815ff1" fill-opacity="1"><g transform="translate(3.147911, 205.781617)"><g><path d="M 113.09375 -76.59375 L 149.8125 -76.59375 L 149.8125 -15.734375 C 141.425781 -9.722656 131.773438 -5.109375 120.859375 -1.890625 C 109.953125 1.328125 99.039062 2.9375 88.125 2.9375 C 72.738281 2.9375 58.890625 -0.3125 46.578125 -6.8125 C 34.265625 -13.320312 24.613281 -22.378906 17.625 -33.984375 C 10.632812 -45.597656 7.140625 -58.75 7.140625 -73.4375 C 7.140625 -88.125 10.632812 -101.269531 17.625 -112.875 C 24.613281 -124.488281 34.332031 -133.546875 46.78125 -140.046875 C 59.238281 -146.554688 73.300781 -149.8125 88.96875 -149.8125 C 102.675781 -149.8125 114.984375 -147.503906 125.890625 -142.890625 C 136.804688 -138.273438 145.898438 -131.628906 153.171875 -122.953125 L 126.734375 -99.03125 C 116.804688 -109.945312 104.914062 -115.40625 91.0625 -115.40625 C 78.476562 -115.40625 68.335938 -111.59375 60.640625 -103.96875 C 52.941406 -96.34375 49.09375 -86.164062 49.09375 -73.4375 C 49.09375 -65.320312 50.84375 -58.082031 54.34375 -51.71875 C 57.84375 -45.351562 62.738281 -40.382812 69.03125 -36.8125 C 75.320312 -33.25 82.523438 -31.46875 90.640625 -31.46875 C 98.617188 -31.46875 106.101562 -33.078125 113.09375 -36.296875 Z M 113.09375 -76.59375 "/></g></g></g><g fill="#815ff1" fill-opacity="1"><g transform="translate(142.476612, 205.781617)"><g><path d="M 88.75 2.9375 C 73.226562 2.9375 59.273438 -0.347656 46.890625 -6.921875 C 34.515625 -13.492188 24.796875 -22.585938 17.734375 -34.203125 C 10.671875 -45.816406 7.140625 -58.894531 7.140625 -73.4375 C 7.140625 -87.988281 10.671875 -101.066406 17.734375 -112.671875 C 24.796875 -124.285156 34.515625 -133.378906 46.890625 -139.953125 C 59.273438 -146.523438 73.226562 -149.8125 88.75 -149.8125 C 104.28125 -149.8125 118.234375 -146.523438 130.609375 -139.953125 C 142.992188 -133.378906 152.71875 -124.285156 159.78125 -112.671875 C 166.84375 -101.066406 170.375 -87.988281 170.375 -73.4375 C 170.375 -58.894531 166.84375 -45.816406 159.78125 -34.203125 C 152.71875 -22.585938 142.992188 -13.492188 130.609375 -6.921875 C 118.234375 -0.347656 104.28125 2.9375 88.75 2.9375 Z M 88.75 -31.46875 C 96.164062 -31.46875 102.878906 -33.21875 108.890625 -36.71875 C 114.910156 -40.21875 119.671875 -45.148438 123.171875 -51.515625 C 126.671875 -57.878906 128.421875 -65.1875 128.421875 -73.4375 C 128.421875 -81.6875 126.671875 -88.992188 123.171875 -95.359375 C 119.671875 -101.734375 114.910156 -106.664062 108.890625 -110.15625 C 102.878906 -113.65625 96.164062 -115.40625 88.75 -115.40625 C 81.34375 -115.40625 74.628906 -113.65625 68.609375 -110.15625 C 62.597656 -106.664062 57.84375 -101.734375 54.34375 -95.359375 C 50.84375 -88.992188 49.09375 -81.6875 49.09375 -73.4375 C 49.09375 -65.1875 50.84375 -57.878906 54.34375 -51.515625 C 57.84375 -45.148438 62.597656 -40.21875 68.609375 -36.71875 C 74.628906 -33.21875 81.34375 -31.46875 88.75 -31.46875 Z M 88.75 -31.46875 "/></g></g></g></g></g></g></g></g></g></svg>